<?xml version="1.0" encoding="UTF-8"?>
<svg width="1828px" height="625px" viewBox="0 0 1828 625" version="1.1" xmlns="http://www.w3.org/2000/svg" xmlns:xlink="http://www.w3.org/1999/xlink">
    <!-- Generator: Sketch 64 (93537) - https://sketch.com -->
    <title>Lenberg Kravitz Group</title>
    <desc>Created with Sketch.</desc>
    <g id="Lenberg-Kravitz-Group" stroke="none" stroke-width="1" fill="none" fill-rule="evenodd">
        <g id="Group-2" transform="translate(0.000000, 9.000000)" fill="#41B548">
            <rect id="Rectangle" opacity="0.25" x="4" y="0" width="654" height="133"></rect>
            <rect id="Rectangle-Copy" fill-opacity="0.5" x="0" y="158" width="654" height="133"></rect>
            <rect id="Rectangle-Copy-2" fill-opacity="0.75" x="0" y="316" width="654" height="133"></rect>
            <rect id="Rectangle-Copy-3" x="0" y="474" width="654" height="133"></rect>
        </g>
        <g id="Lenberg-Kravitz" transform="translate(773.000000, 57.875000)" fill-rule="nonzero">
            <polygon id="L" fill="#41B548" points="145.475 202.125 145.475 160.325 49.5 160.325 49.5 12.375 -5.68434189e-14 12.375 -5.68434189e-14 202.125"></polygon>
            <path d="M220.425,205.975 C258.1,205.975 285.6,187.275 294.125,154 L245.45,154 C243.525,165.275 235,172.425 220.975,172.425 C206.95,172.425 196.225,165.55 193.75,141.075 L296.05,141.075 C296.6,136.125 296.875,131.175 296.875,126.775 C296.875,88.825 272.125,51.425 223.175,51.425 C174.225,51.425 144.8,86.35 144.8,129.25 C144.8,180.95 178.35,205.975 220.425,205.975 Z M245.175,110.825 L195.4,110.825 C198.7,92.675 207.775,84.975 220.7,84.975 C233.9,84.975 242.425,93.5 245.175,110.825 Z M355.325,202.125 L355.325,132.825 C355.325,99.55 366.05,84.975 381.175,84.975 C396.025,84.975 403.725,93.225 404.825,107.25 C405.375,114.675 405.375,122.65 405.375,127.325 L405.375,202.125 L454.875,202.125 L454.875,119.075 C454.875,107.25 454.6,98.725 453.5,91.3 C449.65,65.725 431.775,51.425 401.525,51.425 C388.05,51.425 377.6,54.45 368.525,59.95 L355.325,78.1 L355.325,55.275 L305.825,55.275 L305.825,202.125 L355.325,202.125 Z M563.375,205.975 C601.05,205.975 632.95,177.65 632.95,125.4 C632.95,81.95 608.2,51.425 568.325,51.425 C553.475,51.425 539.175,54.45 530.925,60.5 L519.925,76.725 L519.925,0 L470.425,0 L470.425,202.125 L519.925,202.125 L519.925,183.15 L529.55,198.825 C536.975,203.225 551.275,205.975 563.375,205.975 Z M549.9,172.425 C535.05,172.425 519.925,162.525 519.925,133.1 L519.925,126.775 C519.925,95.975 533.125,84.975 551.275,84.975 C568.6,84.975 582.35,100.375 582.35,127.875 C582.35,157.85 569.15,172.425 549.9,172.425 Z M709.275,205.975 C746.95,205.975 774.45,187.275 782.975,154 L734.3,154 C732.375,165.275 723.85,172.425 709.825,172.425 C695.8,172.425 685.075,165.55 682.6,141.075 L784.9,141.075 C785.45,136.125 785.725,131.175 785.725,126.775 C785.725,88.825 760.975,51.425 712.025,51.425 C663.075,51.425 633.65,86.35 633.65,129.25 C633.65,180.95 667.2,205.975 709.275,205.975 Z M734.025,110.825 L684.25,110.825 C687.55,92.675 696.625,84.975 709.55,84.975 C722.75,84.975 731.275,93.5 734.025,110.825 Z M844.175,202.125 L844.175,148.225 C844.175,103.95 857.65,90.2 894.775,92.675 L894.775,52.25 C891.2,51.7 888.175,51.425 883.5,51.425 C874.15,51.425 862.6,55.55 854.625,64.35 L844.175,84.975 L844.175,55.275 L794.675,55.275 L794.675,202.125 L844.175,202.125 Z M967.25,262.625 C1017.025,262.625 1050.025,241.175 1051.675,193.05 C1051.95,185.075 1051.95,173.8 1051.95,164.725 L1051.95,55.275 L1002.45,55.275 L1002.45,74.25 L992.825,58.575 C985.4,54.175 971.1,51.425 959,51.425 C921.325,51.425 889.425,77.55 889.425,129.8 C889.425,173.25 916.925,200.475 956.8,200.475 C971.65,200.475 983.2,197.45 991.45,191.4 L1002.45,175.175 L1002.45,179.3 C1002.45,187.275 1002.175,194.15 1001.9,198.55 C1000.525,218.35 987.05,226.325 968.625,226.325 C953.225,226.325 941.95,220.825 940.85,211.2 L940.575,208.45 L892.725,208.45 L893,211.2 C896.575,244.75 923.25,262.625 967.25,262.625 Z M971.1,166.925 C953.775,166.925 940.025,153.725 940.025,126.225 C940.025,96.25 953.225,84.975 972.475,84.975 C987.325,84.975 1002.45,94.875 1002.45,124.3 L1002.45,125.125 C1002.45,155.925 989.25,166.925 971.1,166.925 Z" id="enberg" fill="#000000"></path>
            <polygon id="K" fill="#41B548" points="49.5 430.125 49.5 371.825 62.975 356.975 116.6 430.125 178.475 430.125 99 329.75 180.95 240.375 121.825 240.375 49.5 324.25 49.5 240.375 0 240.375 0 430.125"></polygon>
            <path d="M234.175,430.125 L234.175,376.225 C234.175,331.95 247.65,318.2 284.775,320.675 L284.775,280.25 C281.2,279.7 278.175,279.425 273.5,279.425 C264.15,279.425 252.6,283.55 244.625,292.35 L234.175,312.975 L234.175,283.275 L184.675,283.275 L184.675,430.125 L234.175,430.125 Z M328.1,433.975 C341.575,433.975 353.95,430.675 364.4,424.075 L370.45,408.675 L373.75,430.125 L422.15,430.125 C419.99,414.195 419.420545,404.362091 419.400552,393.598954 L419.4,351.75 C419.4,342.675 419.125,334.15 418.575,326.725 C416.375,300.05 400.425,279.425 353.95,279.425 C316.825,279.425 286.3,298.95 286.025,333.325 L332.775,333.05 C333.6,320.4 340.2,312.975 351.75,312.975 C362.475,312.975 368.525,319.575 369.35,327 C369.9,331.675 369.9,334.7 369.9,337.725 L369.9,339.925 L360.55,339.925 C310.775,339.925 281.075,359.175 281.075,390.525 C281.075,418.85 303.9,433.975 328.1,433.975 Z M348.45,400.425 C338.55,400.425 331.675,395.475 331.675,386.675 C331.675,372.1 347.625,366.325 369.9,367.975 L369.9,377.6 C369.9,393 358.35,400.425 348.45,400.425 Z M533.125,430.125 L591.15,283.275 L536.975,283.275 L507,390.8 L476.75,283.275 L421.75,283.275 L479.775,430.125 L533.125,430.125 Z M616.05,272 C631.45,272 641.625,262.65 641.625,247.8 C641.625,232.95 631.45,223.6 616.05,223.6 C600.65,223.6 590.475,232.95 590.475,247.8 C590.475,262.65 600.65,272 616.05,272 Z M640.8,430.125 L640.8,283.275 L591.3,283.275 L591.3,430.125 L640.8,430.125 Z M717.675,433.975 C728.125,433.975 737.2,433.15 746.825,431.5 L746.825,400.7 C723.45,401.8 718.775,398.5 717.675,383.65 C717.4375,380.325 717.405114,375.769318 717.400697,371.400103 L717.4,315.175 L749.85,315.175 L749.85,284.375 L717.4,284.375 L717.4,246.425 L667.9,246.425 L667.9,284.375 L644.525,284.375 L644.525,315.175 L667.9,315.175 L667.900754,379.203224 C667.90679,386.298148 667.961111,392.572222 668.45,400.15 C670.1,422.7 681.1,433.975 717.675,433.975 Z M877.325,430.125 L877.325,399.325 L803.075,399.325 L876.5,314.625 L876.5,284.375 L754.125,284.375 L754.125,315.175 L824.25,315.175 L750,401.25 L750,430.125 L877.325,430.125 Z" id="ravitz" fill="#000000"></path>
        </g>
        <path d="M834.36,611.12 C840.2,611.12 843.96,610.24 847.08,607.6 L849.48,601.52 L850.84,610 L862.04,610 L862.04,580.56 L837.72,580.56 L837.72,591.76 L848.44,591.76 C846.44,597.84 842.76,600.56 837.16,600.56 C830.36,600.56 824.36,595.84 824.36,581.92 C824.36,570 830.2,564.24 837.24,564.24 C843.08,564.24 846.68,567.04 847.88,572.96 L848.04,573.76 L862.44,573.76 L862.36,572.96 C861.24,562.08 853.16,553.68 837.4,553.68 C822.28,553.68 809.32,563.6 809.32,582.8 C809.32,601.36 819.64,611.12 834.36,611.12 Z M882.156364,610 L882.156364,589.04 L885.356364,589.04 C886.956364,589.04 888.316364,589.04 889.916364,589.12 C893.596364,589.36 895.996364,592.88 896.716364,598.96 C897.196364,602.88 897.996364,606.08 899.276364,610 L914.956364,610 C912.796364,606.72 911.516364,602.8 910.796364,596.56 C909.996364,589.92 907.916364,585.68 902.156364,583.6 C909.516364,581.44 913.276364,576.8 913.276364,569.84 C913.276364,560.08 906.316364,556.16 898.316364,555.2 C895.356364,554.88 893.116364,554.8 889.676364,554.8 L867.756364,554.8 L867.756364,610 L882.156364,610 Z M888.334141,578.639122 L882.156364,578.64 L882.156364,566 L887.756364,566 C889.276364,566 890.556364,566 891.596364,566.08 C895.276364,566.4 898.236364,567.68 898.236364,572.32 C898.236364,576.96 894.876364,578.24 891.196364,578.56 C890.387475,578.622222 889.433401,578.636049 888.334141,578.639122 Z M944.112727,611.12 C961.312727,611.12 972.352727,600.08 972.352727,582.4 C972.352727,564.64 961.312727,553.68 944.112727,553.68 C926.912727,553.68 915.872727,564.64 915.872727,582.4 C915.872727,600.08 926.912727,611.12 944.112727,611.12 Z M944.112727,600.56 C935.792727,600.56 930.592727,594.08 930.592727,582.4 C930.592727,570.64 935.792727,564.24 944.112727,564.24 C952.432727,564.24 957.632727,570.64 957.632727,582.4 C957.632727,594.08 952.432727,600.56 944.112727,600.56 Z M1000.14909,611.12 C1017.18909,611.12 1023.74909,602.8 1024.38909,593.52 C1024.61576,590.422222 1024.62835,588.751605 1024.62909,586.216763 L1024.62909,554.8 L1010.22909,554.8 L1010.22909,588.4 C1010.22909,589.92 1010.22909,590.72 1010.14909,591.68 C1009.74909,597.44 1006.46909,600.56 1000.14909,600.56 C993.829091,600.56 990.549091,597.44 990.149091,591.68 C990.086234,590.925714 990.072764,590.270204 990.069878,589.286618 L990.069091,554.8 L975.669091,554.8 L975.669091,586.655583 C975.672054,588.953086 975.695758,590.604444 975.909091,593.52 C976.549091,602.8 983.109091,611.12 1000.14909,611.12 Z M1044.10545,610 L1044.10545,590.64 L1050.50545,590.64 C1053.94545,590.64 1056.18545,590.56 1059.14545,590.24 C1067.14545,589.28 1074.42545,583.6 1074.42545,572.72 C1074.42545,561.84 1067.14545,556.16 1059.14545,555.2 C1056.18545,554.88 1053.94545,554.8 1050.50545,554.8 L1029.70545,554.8 L1029.70545,610 L1044.10545,610 Z M1050.68323,579.439122 L1044.10545,579.44 L1044.10545,566 L1049.70545,566 C1051.22545,566 1052.50545,566 1053.54545,566.08 C1057.22545,566.4 1059.38545,568.56 1059.38545,572.72 C1059.38545,576.88 1057.22545,579.04 1053.54545,579.36 C1052.73657,579.422222 1051.78249,579.436049 1050.68323,579.439122 Z" id="GROUP" fill="#41B548" fill-rule="nonzero"></path>
    </g>
</svg>