<?xml version="1.0" encoding="UTF-8"?>
<svg width="1828px" height="625px" viewBox="0 0 1828 625" version="1.1" xmlns="http://www.w3.org/2000/svg" xmlns:xlink="http://www.w3.org/1999/xlink">
    <!-- Generator: Sketch 64 (93537) - https://sketch.com -->
    <title>Lenberg Kravitz Group - White</title>
    <desc>Created with Sketch.</desc>
    <g id="Lenberg-Kravitz-Group---White" stroke="none" stroke-width="1" fill="none" fill-rule="evenodd">
        <g id="Group-2" transform="translate(0.000000, 9.000000)" fill="#FFFFFF">
            <rect id="Rectangle" opacity="0.25" x="4" y="0" width="654" height="133"></rect>
            <rect id="Rectangle-Copy" fill-opacity="0.5" x="0" y="158" width="654" height="133"></rect>
            <rect id="Rectangle-Copy-2" fill-opacity="0.75" x="0" y="316" width="654" height="133"></rect>
            <rect id="Rectangle-Copy-3" x="0" y="474" width="654" height="133"></rect>
        </g>
        <path d="M918.475,260 L918.475,218.2 L822.5,218.2 L822.5,70.25 L773,70.25 L773,260 L918.475,260 Z M993.425,263.85 C1031.1,263.85 1058.6,245.15 1067.125,211.875 L1018.45,211.875 C1016.525,223.15 1008,230.3 993.975,230.3 C979.95,230.3 969.225,223.425 966.75,198.95 L1069.05,198.95 C1069.6,194 1069.875,189.05 1069.875,184.65 C1069.875,146.7 1045.125,109.3 996.175,109.3 C947.225,109.3 917.8,144.225 917.8,187.125 C917.8,238.825 951.35,263.85 993.425,263.85 Z M1018.175,168.7 L968.4,168.7 C971.7,150.55 980.775,142.85 993.7,142.85 C1006.9,142.85 1015.425,151.375 1018.175,168.7 Z M1128.325,260 L1128.325,190.7 C1128.325,157.425 1139.05,142.85 1154.175,142.85 C1169.025,142.85 1176.725,151.1 1177.825,165.125 C1178.375,172.55 1178.375,180.525 1178.375,185.2 L1178.375,260 L1227.875,260 L1227.875,176.95 C1227.875,165.125 1227.6,156.6 1226.5,149.175 C1222.65,123.6 1204.775,109.3 1174.525,109.3 C1161.05,109.3 1150.6,112.325 1141.525,117.825 L1128.325,135.975 L1128.325,113.15 L1078.825,113.15 L1078.825,260 L1128.325,260 Z M1336.375,263.85 C1374.05,263.85 1405.95,235.525 1405.95,183.275 C1405.95,139.825 1381.2,109.3 1341.325,109.3 C1326.475,109.3 1312.175,112.325 1303.925,118.375 L1292.925,134.6 L1292.925,57.875 L1243.425,57.875 L1243.425,260 L1292.925,260 L1292.925,241.025 L1302.55,256.7 C1309.975,261.1 1324.275,263.85 1336.375,263.85 Z M1322.9,230.3 C1308.05,230.3 1292.925,220.4 1292.925,190.975 L1292.925,184.65 C1292.925,153.85 1306.125,142.85 1324.275,142.85 C1341.6,142.85 1355.35,158.25 1355.35,185.75 C1355.35,215.725 1342.15,230.3 1322.9,230.3 Z M1482.275,263.85 C1519.95,263.85 1547.45,245.15 1555.975,211.875 L1507.3,211.875 C1505.375,223.15 1496.85,230.3 1482.825,230.3 C1468.8,230.3 1458.075,223.425 1455.6,198.95 L1557.9,198.95 C1558.45,194 1558.725,189.05 1558.725,184.65 C1558.725,146.7 1533.975,109.3 1485.025,109.3 C1436.075,109.3 1406.65,144.225 1406.65,187.125 C1406.65,238.825 1440.2,263.85 1482.275,263.85 Z M1507.025,168.7 L1457.25,168.7 C1460.55,150.55 1469.625,142.85 1482.55,142.85 C1495.75,142.85 1504.275,151.375 1507.025,168.7 Z M1617.175,260 L1617.175,206.1 C1617.175,161.825 1630.65,148.075 1667.775,150.55 L1667.775,110.125 C1664.2,109.575 1661.175,109.3 1656.5,109.3 C1647.15,109.3 1635.6,113.425 1627.625,122.225 L1617.175,142.85 L1617.175,113.15 L1567.675,113.15 L1567.675,260 L1617.175,260 Z M1740.25,320.5 C1790.025,320.5 1823.025,299.05 1824.675,250.925 C1824.95,242.95 1824.95,231.675 1824.95,222.6 L1824.95,113.15 L1775.45,113.15 L1775.45,132.125 L1765.825,116.45 C1758.4,112.05 1744.1,109.3 1732,109.3 C1694.325,109.3 1662.425,135.425 1662.425,187.675 C1662.425,231.125 1689.925,258.35 1729.8,258.35 C1744.65,258.35 1756.2,255.325 1764.45,249.275 L1775.45,233.05 L1775.45,237.175 C1775.45,245.15 1775.175,252.025 1774.9,256.425 C1773.525,276.225 1760.05,284.2 1741.625,284.2 C1726.225,284.2 1714.95,278.7 1713.85,269.075 L1713.575,266.325 L1665.725,266.325 L1666,269.075 C1669.575,302.625 1696.25,320.5 1740.25,320.5 Z M1744.1,224.8 C1726.775,224.8 1713.025,211.6 1713.025,184.1 C1713.025,154.125 1726.225,142.85 1745.475,142.85 C1760.325,142.85 1775.45,152.75 1775.45,182.175 L1775.45,183 C1775.45,213.8 1762.25,224.8 1744.1,224.8 Z M822.5,488 L822.5,429.7 L835.975,414.85 L889.6,488 L951.475,488 L872,387.625 L953.95,298.25 L894.825,298.25 L822.5,382.125 L822.5,298.25 L773,298.25 L773,488 L822.5,488 Z M1007.175,488 L1007.175,434.1 C1007.175,389.825 1020.65,376.075 1057.775,378.55 L1057.775,338.125 C1054.2,337.575 1051.175,337.3 1046.5,337.3 C1037.15,337.3 1025.6,341.425 1017.625,350.225 L1007.175,370.85 L1007.175,341.15 L957.675,341.15 L957.675,488 L1007.175,488 Z M1101.1,491.85 C1114.575,491.85 1126.95,488.55 1137.4,481.95 L1143.45,466.55 L1146.75,488 L1195.15,488 C1192.99,472.07 1192.42055,462.237091 1192.40055,451.473954 L1192.4,409.625 C1192.4,400.55 1192.125,392.025 1191.575,384.6 C1189.375,357.925 1173.425,337.3 1126.95,337.3 C1089.825,337.3 1059.3,356.825 1059.025,391.2 L1105.775,390.925 C1106.6,378.275 1113.2,370.85 1124.75,370.85 C1135.475,370.85 1141.525,377.45 1142.35,384.875 C1142.9,389.55 1142.9,392.575 1142.9,395.6 L1142.9,397.8 L1133.55,397.8 C1083.775,397.8 1054.075,417.05 1054.075,448.4 C1054.075,476.725 1076.9,491.85 1101.1,491.85 Z M1121.45,458.3 C1111.55,458.3 1104.675,453.35 1104.675,444.55 C1104.675,429.975 1120.625,424.2 1142.9,425.85 L1142.9,435.475 C1142.9,450.875 1131.35,458.3 1121.45,458.3 Z M1306.125,488 L1364.15,341.15 L1309.975,341.15 L1280,448.675 L1249.75,341.15 L1194.75,341.15 L1252.775,488 L1306.125,488 Z M1389.05,329.875 C1404.45,329.875 1414.625,320.525 1414.625,305.675 C1414.625,290.825 1404.45,281.475 1389.05,281.475 C1373.65,281.475 1363.475,290.825 1363.475,305.675 C1363.475,320.525 1373.65,329.875 1389.05,329.875 Z M1413.8,488 L1413.8,341.15 L1364.3,341.15 L1364.3,488 L1413.8,488 Z M1490.675,491.85 C1501.125,491.85 1510.2,491.025 1519.825,489.375 L1519.825,458.575 C1496.45,459.675 1491.775,456.375 1490.675,441.525 C1490.4375,438.2 1490.40511,433.644318 1490.4007,429.275103 L1490.4,373.05 L1522.85,373.05 L1522.85,342.25 L1490.4,342.25 L1490.4,304.3 L1440.9,304.3 L1440.9,342.25 L1417.525,342.25 L1417.525,373.05 L1440.9,373.05 L1440.90075,437.078224 C1440.90679,444.173148 1440.96111,450.447222 1441.45,458.025 C1443.1,480.575 1454.1,491.85 1490.675,491.85 Z M1650.325,488 L1650.325,457.2 L1576.075,457.2 L1649.5,372.5 L1649.5,342.25 L1527.125,342.25 L1527.125,373.05 L1597.25,373.05 L1523,459.125 L1523,488 L1650.325,488 Z" id="LenbergKravitz" fill="#FFFFFF" fill-rule="nonzero"></path>
        <path d="M834.36,611.12 C840.2,611.12 843.96,610.24 847.08,607.6 L849.48,601.52 L850.84,610 L862.04,610 L862.04,580.56 L837.72,580.56 L837.72,591.76 L848.44,591.76 C846.44,597.84 842.76,600.56 837.16,600.56 C830.36,600.56 824.36,595.84 824.36,581.92 C824.36,570 830.2,564.24 837.24,564.24 C843.08,564.24 846.68,567.04 847.88,572.96 L848.04,573.76 L862.44,573.76 L862.36,572.96 C861.24,562.08 853.16,553.68 837.4,553.68 C822.28,553.68 809.32,563.6 809.32,582.8 C809.32,601.36 819.64,611.12 834.36,611.12 Z M882.156364,610 L882.156364,589.04 L885.356364,589.04 C886.956364,589.04 888.316364,589.04 889.916364,589.12 C893.596364,589.36 895.996364,592.88 896.716364,598.96 C897.196364,602.88 897.996364,606.08 899.276364,610 L914.956364,610 C912.796364,606.72 911.516364,602.8 910.796364,596.56 C909.996364,589.92 907.916364,585.68 902.156364,583.6 C909.516364,581.44 913.276364,576.8 913.276364,569.84 C913.276364,560.08 906.316364,556.16 898.316364,555.2 C895.356364,554.88 893.116364,554.8 889.676364,554.8 L867.756364,554.8 L867.756364,610 L882.156364,610 Z M888.334141,578.639122 L882.156364,578.64 L882.156364,566 L887.756364,566 C889.276364,566 890.556364,566 891.596364,566.08 C895.276364,566.4 898.236364,567.68 898.236364,572.32 C898.236364,576.96 894.876364,578.24 891.196364,578.56 C890.387475,578.622222 889.433401,578.636049 888.334141,578.639122 Z M944.112727,611.12 C961.312727,611.12 972.352727,600.08 972.352727,582.4 C972.352727,564.64 961.312727,553.68 944.112727,553.68 C926.912727,553.68 915.872727,564.64 915.872727,582.4 C915.872727,600.08 926.912727,611.12 944.112727,611.12 Z M944.112727,600.56 C935.792727,600.56 930.592727,594.08 930.592727,582.4 C930.592727,570.64 935.792727,564.24 944.112727,564.24 C952.432727,564.24 957.632727,570.64 957.632727,582.4 C957.632727,594.08 952.432727,600.56 944.112727,600.56 Z M1000.14909,611.12 C1017.18909,611.12 1023.74909,602.8 1024.38909,593.52 C1024.61576,590.422222 1024.62835,588.751605 1024.62909,586.216763 L1024.62909,554.8 L1010.22909,554.8 L1010.22909,588.4 C1010.22909,589.92 1010.22909,590.72 1010.14909,591.68 C1009.74909,597.44 1006.46909,600.56 1000.14909,600.56 C993.829091,600.56 990.549091,597.44 990.149091,591.68 C990.086234,590.925714 990.072764,590.270204 990.069878,589.286618 L990.069091,554.8 L975.669091,554.8 L975.669091,586.655583 C975.672054,588.953086 975.695758,590.604444 975.909091,593.52 C976.549091,602.8 983.109091,611.12 1000.14909,611.12 Z M1044.10545,610 L1044.10545,590.64 L1050.50545,590.64 C1053.94545,590.64 1056.18545,590.56 1059.14545,590.24 C1067.14545,589.28 1074.42545,583.6 1074.42545,572.72 C1074.42545,561.84 1067.14545,556.16 1059.14545,555.2 C1056.18545,554.88 1053.94545,554.8 1050.50545,554.8 L1029.70545,554.8 L1029.70545,610 L1044.10545,610 Z M1050.68323,579.439122 L1044.10545,579.44 L1044.10545,566 L1049.70545,566 C1051.22545,566 1052.50545,566 1053.54545,566.08 C1057.22545,566.4 1059.38545,568.56 1059.38545,572.72 C1059.38545,576.88 1057.22545,579.04 1053.54545,579.36 C1052.73657,579.422222 1051.78249,579.436049 1050.68323,579.439122 Z" id="GROUP" fill="#FFFFFF" fill-rule="nonzero"></path>
    </g>
</svg>